#!OML:ASF F:\VICON\USERDATA\INSTALL\rory3\rory3.ASF
:FULLY-SPECIFIED
:DEGREES
403
root 1.52563 15.6893 -5.53708 -0.26841 -24.5703 0.765397
lowerback -4.11835 3.1532 4.74783
upperback 0.539453 4.02985 -2.16566
thorax 3.35415 2.11835 -4.6121
lowerneck -11.3916 2.35671 -3.26906
upperneck 42.0297 7.28642 -6.70901
head 17.7292 1.40395 -1.27398
rclavicle 1.22563e-014 1.78906e-014
rhumerus 47.5581 -6.78793 -59.6234
rradius 129.514
rwrist -59.1558
rhand -4.83388 -44.6399
rfingers 7.12502
rthumb 20.953 -73.5282
lclavicle 1.22563e-014 1.78906e-014
lhumerus -1.49501 -36.1616 56.1182
lradius 27.8178
lwrist 18.5162
lhand -14.7421 -24.7326
lfingers 7.12502
lthumb 11.4135 4.93679
rfemur -24.1049 -18.6588 24.1881
rtibia 64.8775
rfoot -39.497 -33.7523
rtoes 0.570093
lfemur -27.4848 -14.2672 5.03108
ltibia 14.3352
lfoot 13.2961 10.4037
ltoes -14.5915
404
root 1.51628 15.6841 -5.54514 -0.322162 -24.5035 0.830132
lowerback -4.18642 3.2345 4.74721
upperback 0.591086 4.13792 -2.24335
thorax 3.46496 2.17709 -4.67816
lowerneck -11.3676 2.29941 -3.19527
upperneck 41.9845 7.1823 -6.72914
head 17.695 1.37544 -1.31277
rclavicle -3.21317e-014 1.07344e-014
rhumerus 47.6104 -6.73155 -59.7627
rradius 129.515
rwrist -59.1552
rhand -5.18774 -44.2413
rfingers 7.12502
rthumb 20.613 -73.1668
lclavicle -3.21317e-014 1.07344e-014
lhumerus -1.55382 -36.2826 56.3201
lradius 27.7685
lwrist 18.7176
lhand -15.3434 -24.6617
lfingers 7.12502
lthumb 10.8336 5.03888
rfemur -24.1066 -18.7488 24.1548
rtibia 64.9419
rfoot -39.6075 -33.6257
rtoes 0.782801
lfemur -27.4072 -14.3052 5.00502
ltibia 14.1547
lfoot 13.4179 10.3638
ltoes -14.6556
405
root 1.50681 15.677 -5.55849 -0.274316 -24.3863 0.474688
lowerback -3.9687 3.2993 5.02353
upperback 0.442015 4.2168 -2.10574
thorax 3.20678 2.21016 -4.69991
lowerneck -10.773 2.24396 -3.46748
upperneck 41.8913 7.0608 -6.59536
head 17.4581 1.32164 -1.22575
rclavicle -5.27494e-014 -5.56597e-015
rhumerus 47.4595 -6.44735 -59.7486
rradius 129.504
rwrist -59.1509
rhand -5.34645 -43.9815
rfingers 7.12502
rthumb 20.4605 -72.9234
lclavicle -5.27494e-014 -5.56597e-015
lhumerus -2.04605 -36.472 56.9862
lradius 27.6113
lwrist 18.5935
lhand -15.7811 -25.3407
lfingers 7.12502
lthumb 10.4113 4.38157
rfemur -24.0271 -18.8083 24.5726
rtibia 64.9663
rfoot -39.9144 -33.5071
rtoes 1.23528
lfemur -27.3302 -14.1726 5.34266
ltibia 14.0076
lfoot 13.602 9.99456
ltoes -15.1543
406
root 1.49825 15.6741 -5.56592 -0.357446 -24.2981 0.520348
lowerback -3.8011 3.31884 4.95434
upperback 0.227039 4.25294 -2.02501
thorax 2.88207 2.21278 -4.59053
lowerneck -10.1992 2.22564 -3.79752
upperneck 41.8541 7.0626 -6.57288
head 17.2762 1.28959 -1.16165
rclavicle -4.51428e-014 2.94201e-014
rhumerus 47.328 -5.90629 -59.7313
rradius 129.492
rwrist -59.0618
rhand -5.27442 -44.4105
rfingers 7.12502
rthumb 20.5297 -73.345
lclavicle -4.51428e-014 2.94201e-014
lhumerus -2.96406 -36.3155 57.9243
lradius 27.5207
lwrist 18.1101
lhand -15.9046 -25.7656
lfingers 7.12502
lthumb 10.2922 3.96261
rfemur -23.9817 -18.8529 24.5589
rtibia 65.0046
rfoot -40.0955 -33.4893
rtoes 1.52205
lfemur -27.2884 -14.191 5.28488
ltibia 13.9733
lfoot 13.6672 9.83676
ltoes -15.5066
407
root 1.48931 15.6733 -5.5653 -0.515915 -24.2271 0.853891
lowerback -3.93366 3.38826 4.73823
upperback 0.166185 4.35191 -2.09844
thorax 2.89452 2.25831 -4.53197
lowerneck -9.92288 2.17131 -3.94473
upperneck 41.8807 7.03223 -6.6483
head 17.2219 1.25049 -1.17934
rclavicle -3.55576e-014 -9.74045e-015
rhumerus 47.2845 -5.61583 -59.7287
rradius 129.463
rwrist -59.0664
rhand -5.253 -44.4879
rfingers 7.12502
rthumb 20.5503 -73.4202
lclavicle -3.55576e-014 -9.74045e-015
lhumerus -3.55249 -36.3276 58.5429
lradius 27.5381
lwrist 18.008
lhand -15.9705 -25.596
lfingers 7.12502
lthumb 10.2287 4.13533
rfemur -23.9462 -18.9242 24.2146
rtibia 65.0569
rfoot -40.1041 -33.4717
rtoes 1.66717
lfemur -27.2908 -14.4205 4.99447
ltibia 14.0092
lfoot 13.5285 10.1201
ltoes -14.9721
408
root 1.47905 15.6697 -5.56659 -0.637098 -24.1679 0.923956
lowerback -4.08706 3.47969 4.79991
upperback 0.249249 4.46632 -2.17714
thorax 3.09164 2.3239 -4.62702
lowerneck -9.80411 2.11725 -3.92421
upperneck 41.9153 6.98719 -6.75944
head 17.2196 1.22329 -1.24402
rclavicle 3.58931e-014 1.78906e-015
rhumerus 47.3125 -5.53858 -59.8504
rradius 129.469
rwrist -59.0692
rhand -5.33867 -44.0266
rfingers 7.12502
rthumb 20.468 -72.9678
lclavicle 3.58931e-014 1.78906e-015
lhumerus -3.78122 -36.4683 58.8174
lradius 27.5517
lwrist 18.1341
lhand -15.9213 -25.587
lfingers 7.12502
lthumb 10.2761 4.14194
rfemur -23.8215 -18.9509 24.1481
rtibia 65.0915
rfoot -39.9869 -33.6539
rtoes 1.4562
lfemur -27.2169 -14.4157 4.89517
ltibia 14.0346
lfoot 13.378 10.103
ltoes -14.5851
409
root 1.47134 15.6635 -5.57326 -0.749642 -24.0608 0.879154
lowerback -4.04131 3.5131 4.95045
upperback 0.30418 4.50733 -2.23607
thorax 3.14481 2.35039 -4.77028
lowerneck -9.7901 2.13623 -3.76308
upperneck 41.9528 7.04853 -6.92135
head 17.2581 1.25232 -1.3386
rclavicle -4.98204e-014 -1.63003e-014
rhumerus 47.4134 -5.37928 -60.1341
rradius 129.549
rwrist -58.9558
rhand -5.34535 -44.2881
rfingers 7.12502
rthumb 20.4616 -73.23
lclavicle -4.98204e-014 -1.63003e-014
lhumerus -4.01662 -36.6579 59.0065
lradius 27.5422
lwrist 18.2073
lhand -16.0543 -25.7874
lfingers 7.12502
lthumb 10.1477 3.9479
rfemur -23.6687 -19.0218 24.1854
rtibia 65.1351
rfoot -40.134 -33.621
rtoes 1.53868
lfemur -27.1562 -14.2176 4.84069
ltibia 14.0719
lfoot 13.3532 9.7145
ltoes -14.6451
410
root 1.46709 15.6567 -5.58298 -0.800775 -23.8526 0.831196
lowerback -4.01379 3.54519 5.16217
upperback 0.341959 4.54384 -2.32278
thorax 3.19749 2.3758 -4.97695
lowerneck -9.94107 2.12603 -3.70035
upperneck 42.0742 7.03628 -6.88492
head 17.3666 1.25451 -1.33777
rclavicle 1.25421e-014 -3.18055e-014
rhumerus 47.5549 -5.36171 -60.389
rradius 129.614
rwrist -58.9359
rhand -5.02505 -44.7495
rfingers 7.12502
rthumb 20.7693 -73.6579
lclavicle 1.25421e-014 -3.18055e-014
lhumerus -4.15131 -36.6859 59.197
lradius 27.499
lwrist 18.0792
lhand -15.8279 -25.6316
lfingers 7.12502
lthumb 10.3661 4.09289
rfemur -23.6237 -19.2035 24.2419
rtibia 65.1948
rfoot -40.3101 -33.5166
rtoes 1.76255
lfemur -27.2253 -14.0826 4.80059
ltibia 14.1008
lfoot 13.4374 9.21766
ltoes -15.1444
411
root 1.46338 15.6518 -5.59139 -0.780832 -23.5622 0.850775
lowerback -4.18493 3.59815 5.34534
upperback 0.392153 4.60071 -2.4332
thorax 3.37779 2.41501 -5.1782
lowerneck -10.0672 2.04734 -3.80217
upperneck 42.2265 6.90364 -6.70245
head 17.4663 1.20048 -1.26131
rclavicle 2.6544e-014 -2.38542e-015
rhumerus 47.6617 -5.44906 -60.5241
rradius 129.658
rwrist -59.0621
rhand -4.86345 -44.9781
rfingers 7.12502
rthumb 20.9246 -73.8696
lclavicle 2.6544e-014 -2.38542e-015
lhumerus -4.18842 -36.649 59.4238
lradius 27.4429
lwrist 18.0541
lhand -15.2907 -25.4225
lfingers 7.12502
lthumb 10.8844 4.27537
rfemur -23.7138 -19.4759 24.2635
rtibia 65.2668
rfoot -40.2182 -33.6965
rtoes 1.55756
lfemur -27.393 -14.137 4.7494
ltibia 14.0574
lfoot 13.5907 8.82063
ltoes -15.907
412
root 1.45813 15.6442 -5.60421 -0.753959 -23.3225 0.8645
lowerback -4.25805 3.62504 5.39478
upperback 0.419493 4.63182 -2.4744
thorax 3.45924 2.43495 -5.24087
lowerneck -10.1278 1.9787 -3.85459
upperneck 42.2547 6.84928 -6.75261
head 17.5001 1.16227 -1.28433
rclavicle 6.09337e-014 2.38542e-015
rhumerus 47.8391 -5.3869 -60.6702
rradius 129.745
rwrist -59.1868
rhand -5.07729 -44.957
rfingers 7.12502
rthumb 20.7191 -73.871
lclavicle 6.09337e-014 2.38542e-015
lhumerus -4.25586 -36.6945 59.7095
lradius 27.3251
lwrist 18.2045
lhand -15.1897 -25.5886
lfingers 7.12502
lthumb 10.9818 4.10415
rfemur -23.8365 -19.6326 24.3243
rtibia 65.3584
rfoot -40.3547 -33.725
rtoes 1.7171
lfemur -27.5787 -14.1574 4.74934
ltibia 14.0319
lfoot 13.674 8.57227
ltoes -15.9868
413
root 1.45178 15.6343 -5.62187 -0.791001 -23.2392 0.782339
lowerback -4.0511 3.64369 5.4283
upperback 0.396086 4.66428 -2.4391
thorax 3.32244 2.44714 -5.23339
lowerneck -10.1667 1.92242 -3.90988
upperneck 42.2641 6.84975 -6.90083
head 17.5277 1.1332 -1.34312
rclavicle 1.0138e-014 5.56597e-015
rhumerus 48.0466 -5.14598 -60.8238
rradius 129.757
rwrist -59.1596
rhand -5.27721 -44.043
rfingers 7.12502
rthumb 20.527 -72.9778
lclavicle 1.0138e-014 5.56597e-015
lhumerus -4.58785 -36.4538 60.1665
lradius 27.2033
lwrist 17.9774
lhand -15.4466 -25.7994
lfingers 7.12502
lthumb 10.734 3.90636
rfemur -23.8844 -19.5533 24.5085
rtibia 65.4498
rfoot -40.6392 -33.6741
rtoes 2.17554
lfemur -27.6228 -14.0965 4.86186
ltibia 14.0235
lfoot 13.7035 8.42259
ltoes -15.863
